<?xml version="1.0" encoding="UTF-8"?>
<svg id="Layer_1" data-name="Layer 1" xmlns="http://www.w3.org/2000/svg" version="1.1" xmlns:xlink="http://www.w3.org/1999/xlink" viewBox="0 0 32 32">
  <defs>
    <style>
      .cls-1 {
        fill: url(#linear-gradient);
      }

      .cls-1, .cls-2, .cls-3, .cls-4, .cls-5, .cls-6, .cls-7 {
        stroke-width: 0px;
      }

      .cls-2, .cls-7 {
        fill: #d0d5dd;
      }

      .cls-8 {
        stroke: #d0d5dd;
        stroke-width: .2px;
      }

      .cls-8, .cls-3 {
        fill: none;
      }

      .cls-4 {
        fill: url(#linear-gradient-2);
      }

      .cls-9 {
        clip-path: url(#clippath);
      }

      .cls-5 {
        fill-opacity: .2;
      }

      .cls-5, .cls-6 {
        fill: #fff;
      }

      .cls-7 {
        fill-rule: evenodd;
      }
    </style>
    <clipPath id="clippath">
      <rect class="cls-3" x="0" y="0" width="32" height="32" rx="8" ry="8"/>
    </clipPath>
    <linearGradient id="linear-gradient" x1="-548" y1="268" x2="-548" y2="236" gradientTransform="translate(564 268) scale(1 -1)" gradientUnits="userSpaceOnUse">
      <stop offset="0" stop-color="#fff"/>
      <stop offset="1" stop-color="#d0d5dd"/>
    </linearGradient>
    <linearGradient id="linear-gradient-2" x1="-552" y1="244" x2="-544" y2="260" gradientTransform="translate(564 268) scale(1 -1)" gradientUnits="userSpaceOnUse">
      <stop offset="0" stop-color="#53389e"/>
      <stop offset="1" stop-color="#6941c6"/>
    </linearGradient>
  </defs>
  <g class="cls-9">
    <g>
      <rect class="cls-6" x="0" y="0" width="32" height="32" rx="8" ry="8"/>
      <rect class="cls-1" x="0" y="0" width="32" height="32" rx="8" ry="8"/>
      <path class="cls-7" d="M16,2c-7.7,0-14,6.3-14,14s6.3,14,14,14,14-6.3,14-14S23.7,2,16,2ZM2,16C2,8.2,8.2,2,16,2s14,6.3,14,14-6.3,14-14,14S2,23.8,2,16Z"/>
      <path class="cls-7" d="M16,12.1c-2.2,0-3.9,1.8-3.9,3.9s1.8,3.9,3.9,3.9,3.9-1.8,3.9-3.9-1.8-3.9-3.9-3.9ZM12,16c0-2.2,1.8-4,4-4s4,1.8,4,4-1.8,4-4,4-4-1.8-4-4Z"/>
      <path class="cls-7" d="M16,13.3c-1.5,0-2.7,1.2-2.7,2.7s1.2,2.7,2.7,2.7,2.7-1.2,2.7-2.7-1.2-2.7-2.7-2.7ZM13.2,16c0-1.5,1.2-2.8,2.8-2.8s2.8,1.2,2.8,2.8-1.2,2.8-2.8,2.8-2.8-1.2-2.8-2.8Z"/>
      <path class="cls-2" d="M16,0h0v32h0V0Z"/>
      <path class="cls-2" d="M32,16h0C32,16,0,16,0,16H0C0,16,32,16,32,16Z"/>
      <path class="cls-2" d="M26.6,0h0v32h0V0Z"/>
      <path class="cls-2" d="M10.6,0h0v32h0V0Z"/>
      <path class="cls-2" d="M21.3,0h0v32h0V0Z"/>
      <path class="cls-2" d="M5.3,0h0v32h0V0Z"/>
      <path class="cls-2" d="M32,26.6h0C32,26.7,0,26.7,0,26.7H0c0,0,32,0,32,0Z"/>
      <path class="cls-2" d="M32,10.6h0C32,10.7,0,10.7,0,10.7H0C0,10.6,32,10.6,32,10.6Z"/>
      <path class="cls-2" d="M32,21.3h0C32,21.4,0,21.4,0,21.4H0c0,0,32,0,32,0Z"/>
      <path class="cls-2" d="M32,5.3h0C32,5.4,0,5.4,0,5.4H0C0,5.3,32,5.3,32,5.3Z"/>
      <circle class="cls-4" cx="16" cy="16" r="8"/>
      <path class="cls-5" d="M0,16h32v3.2c0,4.5,0,6.7-.9,8.4-.8,1.5-2,2.7-3.5,3.5-1.7.9-4,.9-8.4.9h-6.4c-4.5,0-6.7,0-8.4-.9-1.5-.8-2.7-2-3.5-3.5C0,25.9,0,23.7,0,19.2v-3.2Z"/>
    </g>
  </g>
  <rect class="cls-8" x=".1" y=".1" width="31.8" height="31.8" rx="7.9" ry="7.9"/>
</svg>